<?xml version="1.0" encoding="utf-8"?>
<!-- Generator: Adobe Illustrator 18.0.0, SVG Export Plug-In . SVG Version: 6.00 Build 0)  -->
<!DOCTYPE svg PUBLIC "-//W3C//DTD SVG 1.1//EN" "http://www.w3.org/Graphics/SVG/1.1/DTD/svg11.dtd">
<svg version="1.1" id="Layer_1" xmlns="http://www.w3.org/2000/svg" xmlns:xlink="http://www.w3.org/1999/xlink" x="0px" y="0px"
	 width="30px" height="42px" viewBox="0 0 30 42" enable-background="new 0 0 30 42" xml:space="preserve">
<g>
	<path fill="#FFFFFF" d="M27,12h-9V3V0h-3H3H0v3v36v3h3h24h3v-3V15v-3H27z M27,39H3V3h12v9v3h3h9V39z"/>
	<rect x="18" y="3" opacity="0.85" fill="#FFFFFF" width="3" height="3"/>
	<rect x="21" y="6" opacity="0.85" fill="#FFFFFF" width="3" height="3"/>
	<rect x="24" y="9" opacity="0.85" fill="#FFFFFF" width="3" height="3"/>
	<rect x="18" y="0" opacity="0.6" fill="#FFFFFF" width="3" height="3"/>
	<rect x="21" y="3" opacity="0.6" fill="#FFFFFF" width="3" height="3"/>
	<rect x="24" y="6" opacity="0.6" fill="#FFFFFF" width="3" height="3"/>
	<rect x="27" y="9" opacity="0.6" fill="#FFFFFF" width="3" height="3"/>
</g>
</svg>
