<?xml version="1.0" encoding="utf-8"?>
<!-- Generator: Adobe Illustrator 18.0.0, SVG Export Plug-In . SVG Version: 6.00 Build 0)  -->
<!DOCTYPE svg PUBLIC "-//W3C//DTD SVG 1.1//EN" "http://www.w3.org/Graphics/SVG/1.1/DTD/svg11.dtd">
<svg version="1.1" id="Layer_1" xmlns="http://www.w3.org/2000/svg" xmlns:xlink="http://www.w3.org/1999/xlink" x="0px" y="0px"
	 width="207.3px" height="51.6px" viewBox="0 0 207.3 51.6" enable-background="new 0 0 207.3 51.6" xml:space="preserve">
<g>
	<path fill="#FFFFFF" d="M24.5,16.5L3.8,26.9l20.7,10.3v3.9L0,28.2v-2.7l24.5-12.9V16.5z"/>
	<path fill="#FFFFFF" d="M35.8,3.3l-4.6-0.5V0.9L38.8,0h0.1l1,0.7V13l-0.1,4.3c1.1-1,2.7-2,4.7-2.9c2-0.9,4-1.4,5.9-1.4
		c2.2,0,3.9,0.4,5.1,1.2c1.2,0.8,2.1,2.1,2.5,3.9c0.5,1.7,0.7,4.1,0.7,7.1v14.6l3.8,0.4v2.2H50.9v-2.2l3.6-0.4V25.1
		c0-2.2-0.1-3.9-0.4-5.2c-0.3-1.2-0.9-2.2-1.7-2.8c-0.9-0.6-2.1-0.9-3.8-0.9c-1.4,0-2.9,0.3-4.5,1c-1.6,0.7-3,1.5-4.2,2.4v20.2
		l3.8,0.4v2.2H32.5v-2.2l3.3-0.4V3.3z"/>
	<path fill="#FFFFFF" d="M71.4,41.8c-0.9-0.8-1.4-2.4-1.4-4.5V16.7H66v-2c1.7-0.4,2.7-0.7,3-0.8c0.5-0.3,0.9-0.8,1.1-1.6
		c0.2-0.5,0.5-1.5,0.8-2.8c0.3-1.3,0.6-2.4,0.8-3.2h2.4v7.4h9.2v3.1h-9.2v16.8c0,2,0.1,3.4,0.2,4.2c0.1,0.8,0.4,1.3,0.8,1.6
		c0.4,0.2,1.1,0.4,2.2,0.4c1,0,2.1-0.1,3.4-0.4c1.2-0.3,2.2-0.6,2.8-0.9l0.7,2c-0.8,0.6-2.1,1.2-3.9,1.8c-1.8,0.6-3.4,0.9-4.8,0.9
		C73.7,43,72.3,42.6,71.4,41.8z"/>
	<path fill="#FFFFFF" d="M87.5,40.2l3.3-0.4V17.1l-4-0.9v-2.3l6.6-0.8l1.1,0.8v2.3l-0.1,1.3c1.3-1.1,3-2.1,5-3.1
		c2.1-0.9,4-1.4,5.7-1.4c1.9,0,3.4,0.3,4.5,0.9c1.1,0.6,2,1.6,2.6,2.9c1.1-0.9,2.6-1.8,4.7-2.6c2.1-0.8,3.9-1.2,5.7-1.2
		c2.2,0,3.9,0.4,5.1,1.2c1.2,0.8,2,2.1,2.5,3.8c0.5,1.7,0.7,4.1,0.7,7v14.7l3.9,0.4v2.2h-11.6v-2.2l3.5-0.4V25.2
		c0-2.2-0.2-3.9-0.5-5.2c-0.3-1.3-0.9-2.2-1.8-2.9c-0.9-0.7-2.2-1-3.9-1c-1.3,0-2.6,0.3-4,0.9s-2.6,1.2-3.6,1.9
		c0.3,1.6,0.5,3.7,0.5,6.2v14.6l3.9,0.4v2.2h-11.9v-2.2l3.7-0.4V25.1c0-2.2-0.1-3.9-0.4-5.2c-0.3-1.2-0.8-2.2-1.6-2.8
		c-0.8-0.6-2.1-0.9-3.7-0.9c-1.3,0-2.8,0.3-4.4,1c-1.6,0.7-2.9,1.5-4.1,2.4v20.2l3.7,0.4v2.2H87.5V40.2z"/>
	<path fill="#FFFFFF" d="M142.9,3.3l-4.4-0.5V0.9L146,0h0.1l1,0.7v39.2l4.9,0.4v2.2h-13.6v-2.2l4.6-0.4V3.3z"/>
	<path fill="#FFFFFF" d="M159.2,51.6h-3.9L169.8,2h3.9L159.2,51.6z"/>
	<path fill="#FFFFFF" d="M181.6,41.1v-3.9l20.7-10.3l-20.7-10.3v-3.9l24.5,12.9v2.7L181.6,41.1z"/>
</g>
<g>
	<g>
		<path fill="#FFFFFF" d="M27-66.4c12.1,0,22,9.9,22,22s-9.9,22-22,22s-22-9.9-22-22S14.9-66.4,27-66.4 M27-69.4
			c-13.8,0-25,11.2-25,25s11.2,25,25,25c13.8,0,25-11.2,25-25S40.8-69.4,27-69.4L27-69.4z"/>
	</g>
	<g>
		<path fill="#FFFFFF" d="M87.2-66.4c12.1,0,22,9.9,22,22s-9.9,22-22,22s-22-9.9-22-22S75.1-66.4,87.2-66.4 M87.2-69.4
			c-13.8,0-25,11.2-25,25s11.2,25,25,25s25-11.2,25-25S101-69.4,87.2-69.4L87.2-69.4z"/>
	</g>
	<g>
		
			<rect x="16.6" y="-45.9" transform="matrix(0.7071 0.7071 -0.7071 0.7071 -23.477 -32.0913)" fill="#FFFFFF" width="20.8" height="3"/>
	</g>
	<g>
		
			<rect x="25.5" y="-54.8" transform="matrix(0.7071 0.7071 -0.7071 0.7071 -23.4772 -32.0921)" fill="#FFFFFF" width="3" height="20.8"/>
	</g>
	<g>
		<rect x="76.3" y="-46" fill="#FFFFFF" width="21" height="3"/>
	</g>
	<path fill="#FFFFFF" d="M147.4-66.4c12.1,0,22,9.9,22,22s-9.9,22-22,22s-22-9.9-22-22S135.3-66.4,147.4-66.4 M147.4-69.4
		c-13.8,0-25,11.2-25,25s11.2,25,25,25s25-11.2,25-25S161.3-69.4,147.4-69.4L147.4-69.4z"/>
	<g>
		<polygon fill="#FFFFFF" points="157.7,-43.3 154.7,-43.3 154.7,-51.8 146.3,-51.8 146.3,-54.8 157.7,-54.8 		"/>
	</g>
	<g>
		<polygon fill="#FFFFFF" points="148.6,-34.2 137.2,-34.2 137.2,-45.7 140.2,-45.7 140.2,-37.2 148.6,-37.2 		"/>
	</g>
</g>
</svg>
